# xmcd
#
# Track frame offsets: 
#        150
#        15111
#        32119
#
# Disc length: 657 seconds
#
# Revision: 0
# Processed by: cddbd v1.5.2PL0 Copyright (c) Steve Scherf et al.
# Submitted via: ExactAudioCopy v0.99pb5
#
DISCID=13028f03
DTITLE=Will Smith - Switch
DYEAR=2005
DGENRE=hip hop
TTITLE0=Switch
TTITLE1=Switch (Main RNB Remix)
TTITLE2=Switch (Instrumental RNB Remix)
EXTD=
EXTT0=
EXTT1=
EXTT2=
PLAYORDER=
